<mxfile host="app.diagrams.net" modified="2021-02-16T01:37:05.664Z" agent="5.0 (Macintosh; Intel Mac OS X 11_2_0) AppleWebKit/537.36 (KHTML, like Gecko) Chrome/88.0.4324.150 Safari/537.36" etag="OMLmv-vx9GkCYd5KTRhR" version="14.3.2" type="github">
  <diagram id="rXLFBrK-0Qv3lbd19XVb" name="Page-1">
    <mxGraphModel dx="879" dy="370" grid="1" gridSize="10" guides="1" tooltips="1" connect="1" arrows="1" fold="1" page="1" pageScale="1" pageWidth="850" pageHeight="1100" math="0" shadow="0">
      <root>
        <mxCell id="0" />
        <mxCell id="1" parent="0" />
        <mxCell id="V8BqJ2yRHNK_wXO8XiH2-6" value="&lt;b&gt;&lt;br&gt;&lt;/b&gt;" style="rounded=0;whiteSpace=wrap;html=1;" vertex="1" parent="1">
          <mxGeometry x="175" y="40" width="1125" height="280" as="geometry" />
        </mxCell>
        <mxCell id="V8BqJ2yRHNK_wXO8XiH2-1" value="C" style="ellipse;whiteSpace=wrap;html=1;aspect=fixed;fillColor=#dae8fc;strokeColor=#6c8ebf;" vertex="1" parent="1">
          <mxGeometry x="220" y="140" width="30" height="30" as="geometry" />
        </mxCell>
        <mxCell id="V8BqJ2yRHNK_wXO8XiH2-2" value="D" style="ellipse;whiteSpace=wrap;html=1;aspect=fixed;fillColor=#f8cecc;strokeColor=#b85450;" vertex="1" parent="1">
          <mxGeometry x="250" y="240" width="30" height="30" as="geometry" />
        </mxCell>
        <mxCell id="V8BqJ2yRHNK_wXO8XiH2-3" value="A" style="ellipse;whiteSpace=wrap;html=1;aspect=fixed;fillColor=#fff2cc;strokeColor=#d6b656;" vertex="1" parent="1">
          <mxGeometry x="310" y="70" width="30" height="30" as="geometry" />
        </mxCell>
        <mxCell id="V8BqJ2yRHNK_wXO8XiH2-4" value="B" style="ellipse;whiteSpace=wrap;html=1;aspect=fixed;fillColor=#d5e8d4;strokeColor=#82b366;" vertex="1" parent="1">
          <mxGeometry x="400" y="140" width="30" height="30" as="geometry" />
        </mxCell>
        <mxCell id="V8BqJ2yRHNK_wXO8XiH2-5" value="E" style="ellipse;whiteSpace=wrap;html=1;aspect=fixed;fillColor=#ffe6cc;strokeColor=#d79b00;" vertex="1" parent="1">
          <mxGeometry x="380" y="240" width="30" height="30" as="geometry" />
        </mxCell>
        <mxCell id="V8BqJ2yRHNK_wXO8XiH2-8" value="" style="endArrow=classic;html=1;entryX=0;entryY=0.5;entryDx=0;entryDy=0;exitX=0.5;exitY=1;exitDx=0;exitDy=0;fillColor=#fff2cc;strokeColor=#d6b656;" edge="1" parent="1" source="V8BqJ2yRHNK_wXO8XiH2-3" target="V8BqJ2yRHNK_wXO8XiH2-4">
          <mxGeometry width="50" height="50" relative="1" as="geometry">
            <mxPoint x="290" y="180" as="sourcePoint" />
            <mxPoint x="340" y="130" as="targetPoint" />
          </mxGeometry>
        </mxCell>
        <mxCell id="V8BqJ2yRHNK_wXO8XiH2-11" value="" style="endArrow=classic;html=1;exitX=0.5;exitY=1;exitDx=0;exitDy=0;fillColor=#fff2cc;strokeColor=#d6b656;" edge="1" parent="1" source="V8BqJ2yRHNK_wXO8XiH2-3" target="V8BqJ2yRHNK_wXO8XiH2-2">
          <mxGeometry width="50" height="50" relative="1" as="geometry">
            <mxPoint x="345.6066017177982" y="105.60660171779818" as="sourcePoint" />
            <mxPoint x="410" y="165" as="targetPoint" />
          </mxGeometry>
        </mxCell>
        <mxCell id="V8BqJ2yRHNK_wXO8XiH2-12" value="" style="endArrow=classic;html=1;entryX=1;entryY=0;entryDx=0;entryDy=0;fillColor=#fff2cc;strokeColor=#d6b656;" edge="1" parent="1" target="V8BqJ2yRHNK_wXO8XiH2-1">
          <mxGeometry width="50" height="50" relative="1" as="geometry">
            <mxPoint x="325" y="100" as="sourcePoint" />
            <mxPoint x="255.4149115383657" y="240.0014785258884" as="targetPoint" />
          </mxGeometry>
        </mxCell>
        <mxCell id="V8BqJ2yRHNK_wXO8XiH2-13" value="" style="endArrow=classic;html=1;exitX=0.5;exitY=1;exitDx=0;exitDy=0;entryX=0;entryY=0;entryDx=0;entryDy=0;fillColor=#fff2cc;strokeColor=#d6b656;" edge="1" parent="1" source="V8BqJ2yRHNK_wXO8XiH2-3" target="V8BqJ2yRHNK_wXO8XiH2-5">
          <mxGeometry width="50" height="50" relative="1" as="geometry">
            <mxPoint x="335" y="110" as="sourcePoint" />
            <mxPoint x="280.4149115383657" y="251.01147852588838" as="targetPoint" />
          </mxGeometry>
        </mxCell>
        <mxCell id="V8BqJ2yRHNK_wXO8XiH2-17" value="C" style="ellipse;whiteSpace=wrap;html=1;aspect=fixed;fillColor=#dae8fc;strokeColor=#6c8ebf;" vertex="1" parent="1">
          <mxGeometry x="520" y="140" width="30" height="30" as="geometry" />
        </mxCell>
        <mxCell id="V8BqJ2yRHNK_wXO8XiH2-18" value="D" style="ellipse;whiteSpace=wrap;html=1;aspect=fixed;fillColor=#f8cecc;strokeColor=#b85450;" vertex="1" parent="1">
          <mxGeometry x="590" y="240" width="30" height="30" as="geometry" />
        </mxCell>
        <mxCell id="V8BqJ2yRHNK_wXO8XiH2-19" value="A" style="ellipse;whiteSpace=wrap;html=1;aspect=fixed;fillColor=#fff2cc;strokeColor=#d6b656;" vertex="1" parent="1">
          <mxGeometry x="610" y="70" width="30" height="30" as="geometry" />
        </mxCell>
        <mxCell id="V8BqJ2yRHNK_wXO8XiH2-20" value="B" style="ellipse;whiteSpace=wrap;html=1;aspect=fixed;fillColor=#d5e8d4;strokeColor=#82b366;" vertex="1" parent="1">
          <mxGeometry x="700" y="140" width="30" height="30" as="geometry" />
        </mxCell>
        <mxCell id="V8BqJ2yRHNK_wXO8XiH2-21" value="E" style="ellipse;whiteSpace=wrap;html=1;aspect=fixed;fillColor=#ffe6cc;strokeColor=#d79b00;" vertex="1" parent="1">
          <mxGeometry x="700" y="200" width="30" height="30" as="geometry" />
        </mxCell>
        <mxCell id="V8BqJ2yRHNK_wXO8XiH2-23" value="" style="endArrow=none;html=1;exitX=0.5;exitY=1;exitDx=0;exitDy=0;endFill=0;startArrow=classic;startFill=1;entryX=0.5;entryY=0;entryDx=0;entryDy=0;fillColor=#f8cecc;strokeColor=#b85450;" edge="1" parent="1" source="V8BqJ2yRHNK_wXO8XiH2-19" target="V8BqJ2yRHNK_wXO8XiH2-18">
          <mxGeometry width="50" height="50" relative="1" as="geometry">
            <mxPoint x="645.6066017177982" y="105.60660171779818" as="sourcePoint" />
            <mxPoint x="607" y="240" as="targetPoint" />
          </mxGeometry>
        </mxCell>
        <mxCell id="V8BqJ2yRHNK_wXO8XiH2-26" value="" style="endArrow=none;html=1;exitX=0;exitY=0.5;exitDx=0;exitDy=0;endFill=0;startArrow=classic;startFill=1;entryX=0.503;entryY=-0.021;entryDx=0;entryDy=0;entryPerimeter=0;fillColor=#f8cecc;strokeColor=#b85450;" edge="1" parent="1" source="V8BqJ2yRHNK_wXO8XiH2-20" target="V8BqJ2yRHNK_wXO8XiH2-18">
          <mxGeometry width="50" height="50" relative="1" as="geometry">
            <mxPoint x="635" y="110" as="sourcePoint" />
            <mxPoint x="605" y="242" as="targetPoint" />
          </mxGeometry>
        </mxCell>
        <mxCell id="V8BqJ2yRHNK_wXO8XiH2-27" value="" style="endArrow=none;html=1;exitX=0.5;exitY=1;exitDx=0;exitDy=0;endFill=0;startArrow=classic;startFill=1;entryX=0.5;entryY=0;entryDx=0;entryDy=0;fillColor=#f8cecc;strokeColor=#b85450;" edge="1" parent="1" source="V8BqJ2yRHNK_wXO8XiH2-17" target="V8BqJ2yRHNK_wXO8XiH2-18">
          <mxGeometry width="50" height="50" relative="1" as="geometry">
            <mxPoint x="709.9999999999998" y="164.9999999999999" as="sourcePoint" />
            <mxPoint x="570" y="240" as="targetPoint" />
          </mxGeometry>
        </mxCell>
        <mxCell id="V8BqJ2yRHNK_wXO8XiH2-28" value="" style="endArrow=none;html=1;exitX=0;exitY=0.5;exitDx=0;exitDy=0;endFill=0;startArrow=classic;startFill=1;fillColor=#f8cecc;strokeColor=#b85450;" edge="1" parent="1" source="V8BqJ2yRHNK_wXO8XiH2-21">
          <mxGeometry width="50" height="50" relative="1" as="geometry">
            <mxPoint x="544.9999999999998" y="179.9999999999999" as="sourcePoint" />
            <mxPoint x="605" y="240" as="targetPoint" />
          </mxGeometry>
        </mxCell>
        <mxCell id="V8BqJ2yRHNK_wXO8XiH2-29" value="&lt;b&gt;Broadcast Medium&lt;/b&gt;" style="text;html=1;strokeColor=none;fillColor=none;align=center;verticalAlign=middle;whiteSpace=wrap;rounded=0;" vertex="1" parent="1">
          <mxGeometry x="650" y="50" width="120" height="20" as="geometry" />
        </mxCell>
        <mxCell id="V8BqJ2yRHNK_wXO8XiH2-30" value="/file/xyg.jpg" style="text;html=1;align=center;verticalAlign=middle;whiteSpace=wrap;rounded=0;fontStyle=0;glass=0;strokeColor=#000000;fillColor=#ffffff;" vertex="1" parent="1">
          <mxGeometry x="275" y="110" width="100" height="20" as="geometry" />
        </mxCell>
        <mxCell id="V8BqJ2yRHNK_wXO8XiH2-39" value="/file/xyg.jpg" style="text;html=1;align=center;verticalAlign=middle;whiteSpace=wrap;rounded=0;fontStyle=0;glass=0;strokeColor=#000000;fillColor=#ffffff;" vertex="1" parent="1">
          <mxGeometry x="558" y="213" width="100" height="20" as="geometry" />
        </mxCell>
        <mxCell id="V8BqJ2yRHNK_wXO8XiH2-42" value="At t = 0ms node A&amp;nbsp;&lt;br&gt;multicasts" style="text;html=1;strokeColor=none;fillColor=none;align=center;verticalAlign=middle;whiteSpace=wrap;rounded=0;glass=0;" vertex="1" parent="1">
          <mxGeometry x="175" y="75" width="140" height="20" as="geometry" />
        </mxCell>
        <mxCell id="V8BqJ2yRHNK_wXO8XiH2-43" value="At t = 10ms node D&lt;br&gt;multicasts same interest" style="text;html=1;strokeColor=none;fillColor=none;align=center;verticalAlign=middle;whiteSpace=wrap;rounded=0;glass=0;" vertex="1" parent="1">
          <mxGeometry x="620" y="260" width="140" height="20" as="geometry" />
        </mxCell>
        <mxCell id="V8BqJ2yRHNK_wXO8XiH2-44" value="C" style="ellipse;whiteSpace=wrap;html=1;aspect=fixed;fillColor=#dae8fc;strokeColor=#6c8ebf;" vertex="1" parent="1">
          <mxGeometry x="863" y="130" width="30" height="30" as="geometry" />
        </mxCell>
        <mxCell id="V8BqJ2yRHNK_wXO8XiH2-45" value="D" style="ellipse;whiteSpace=wrap;html=1;aspect=fixed;fillColor=#f8cecc;strokeColor=#b85450;" vertex="1" parent="1">
          <mxGeometry x="953" y="240" width="30" height="30" as="geometry" />
        </mxCell>
        <mxCell id="V8BqJ2yRHNK_wXO8XiH2-46" value="A" style="ellipse;whiteSpace=wrap;html=1;aspect=fixed;fillColor=#fff2cc;strokeColor=#d6b656;" vertex="1" parent="1">
          <mxGeometry x="1043" y="50" width="30" height="30" as="geometry" />
        </mxCell>
        <mxCell id="V8BqJ2yRHNK_wXO8XiH2-47" value="B" style="ellipse;whiteSpace=wrap;html=1;aspect=fixed;fillColor=#d5e8d4;strokeColor=#82b366;" vertex="1" parent="1">
          <mxGeometry x="1183" y="120" width="30" height="30" as="geometry" />
        </mxCell>
        <mxCell id="V8BqJ2yRHNK_wXO8XiH2-48" value="E" style="ellipse;whiteSpace=wrap;html=1;aspect=fixed;fillColor=#ffe6cc;strokeColor=#d79b00;" vertex="1" parent="1">
          <mxGeometry x="1143" y="240" width="30" height="30" as="geometry" />
        </mxCell>
        <mxCell id="V8BqJ2yRHNK_wXO8XiH2-55" value="" style="endArrow=blockThin;html=1;exitX=1;exitY=0;exitDx=0;exitDy=0;endFill=1;jumpSize=3;shadow=0;fillColor=#dae8fc;strokeColor=#6c8ebf;" edge="1" parent="1" source="V8BqJ2yRHNK_wXO8XiH2-44">
          <mxGeometry width="50" height="50" relative="1" as="geometry">
            <mxPoint x="883" y="150" as="sourcePoint" />
            <mxPoint x="923" y="110" as="targetPoint" />
          </mxGeometry>
        </mxCell>
        <mxCell id="V8BqJ2yRHNK_wXO8XiH2-56" value="" style="endArrow=blockThin;html=1;exitX=1;exitY=0;exitDx=0;exitDy=0;entryX=0.487;entryY=0.655;entryDx=0;entryDy=0;entryPerimeter=0;endFill=1;jumpSize=3;shadow=0;fillColor=#dae8fc;strokeColor=#6c8ebf;" edge="1" parent="1">
          <mxGeometry width="50" height="50" relative="1" as="geometry">
            <mxPoint x="893.6066017177984" y="144.39339828220193" as="sourcePoint" />
            <mxPoint x="932.7650000000001" y="140.95000000000016" as="targetPoint" />
          </mxGeometry>
        </mxCell>
        <mxCell id="V8BqJ2yRHNK_wXO8XiH2-57" value="" style="endArrow=blockThin;html=1;exitX=1;exitY=1;exitDx=0;exitDy=0;endFill=1;jumpSize=3;shadow=0;fillColor=#dae8fc;strokeColor=#6c8ebf;" edge="1" parent="1" source="V8BqJ2yRHNK_wXO8XiH2-44">
          <mxGeometry width="50" height="50" relative="1" as="geometry">
            <mxPoint x="890" y="158" as="sourcePoint" />
            <mxPoint x="933" y="170" as="targetPoint" />
          </mxGeometry>
        </mxCell>
        <mxCell id="V8BqJ2yRHNK_wXO8XiH2-66" value="" style="endArrow=blockThin;html=1;exitX=0;exitY=0;exitDx=0;exitDy=0;endFill=1;jumpSize=3;shadow=0;fillColor=#f8cecc;strokeColor=#b85450;" edge="1" parent="1" source="V8BqJ2yRHNK_wXO8XiH2-45">
          <mxGeometry width="50" height="50" relative="1" as="geometry">
            <mxPoint x="973" y="234" as="sourcePoint" />
            <mxPoint x="943" y="220" as="targetPoint" />
          </mxGeometry>
        </mxCell>
        <mxCell id="V8BqJ2yRHNK_wXO8XiH2-67" value="" style="endArrow=blockThin;html=1;exitX=0.5;exitY=0;exitDx=0;exitDy=0;endFill=1;jumpSize=3;shadow=0;fillColor=#f8cecc;strokeColor=#b85450;" edge="1" parent="1" source="V8BqJ2yRHNK_wXO8XiH2-45">
          <mxGeometry width="50" height="50" relative="1" as="geometry">
            <mxPoint x="987.9966017177984" y="243.5533982822019" as="sourcePoint" />
            <mxPoint x="983" y="210" as="targetPoint" />
          </mxGeometry>
        </mxCell>
        <mxCell id="V8BqJ2yRHNK_wXO8XiH2-68" value="" style="endArrow=blockThin;html=1;endFill=1;jumpSize=3;shadow=0;fillColor=#f8cecc;strokeColor=#b85450;" edge="1" parent="1">
          <mxGeometry width="50" height="50" relative="1" as="geometry">
            <mxPoint x="984.39" y="257.15999999999997" as="sourcePoint" />
            <mxPoint x="1023" y="257" as="targetPoint" />
          </mxGeometry>
        </mxCell>
        <mxCell id="V8BqJ2yRHNK_wXO8XiH2-69" value="" style="endArrow=blockThin;html=1;exitX=0.988;exitY=0.293;exitDx=0;exitDy=0;exitPerimeter=0;endFill=1;jumpSize=3;shadow=0;fillColor=#f8cecc;strokeColor=#b85450;" edge="1" parent="1" source="V8BqJ2yRHNK_wXO8XiH2-45">
          <mxGeometry width="50" height="50" relative="1" as="geometry">
            <mxPoint x="989" y="250" as="sourcePoint" />
            <mxPoint x="1023" y="230" as="targetPoint" />
          </mxGeometry>
        </mxCell>
        <mxCell id="V8BqJ2yRHNK_wXO8XiH2-70" value="" style="endArrow=blockThin;html=1;exitX=0.5;exitY=1;exitDx=0;exitDy=0;endFill=1;jumpSize=3;shadow=0;fillColor=#dae8fc;strokeColor=#6c8ebf;" edge="1" parent="1" source="V8BqJ2yRHNK_wXO8XiH2-44">
          <mxGeometry width="50" height="50" relative="1" as="geometry">
            <mxPoint x="900" y="168" as="sourcePoint" />
            <mxPoint x="903" y="190" as="targetPoint" />
          </mxGeometry>
        </mxCell>
        <mxCell id="V8BqJ2yRHNK_wXO8XiH2-73" value="" style="endArrow=blockThin;html=1;exitX=0;exitY=0.5;exitDx=0;exitDy=0;endFill=1;jumpSize=3;shadow=0;fillColor=#fff2cc;strokeColor=#d6b656;" edge="1" parent="1" source="V8BqJ2yRHNK_wXO8XiH2-46">
          <mxGeometry width="50" height="50" relative="1" as="geometry">
            <mxPoint x="1023" y="160" as="sourcePoint" />
            <mxPoint x="1013" y="80" as="targetPoint" />
          </mxGeometry>
        </mxCell>
        <mxCell id="V8BqJ2yRHNK_wXO8XiH2-74" value="" style="endArrow=blockThin;html=1;exitX=0;exitY=1;exitDx=0;exitDy=0;endFill=1;jumpSize=3;shadow=0;fillColor=#fff2cc;strokeColor=#d6b656;" edge="1" parent="1" source="V8BqJ2yRHNK_wXO8XiH2-46">
          <mxGeometry width="50" height="50" relative="1" as="geometry">
            <mxPoint x="1033" y="130" as="sourcePoint" />
            <mxPoint x="1033" y="110" as="targetPoint" />
          </mxGeometry>
        </mxCell>
        <mxCell id="V8BqJ2yRHNK_wXO8XiH2-75" value="" style="endArrow=blockThin;html=1;exitX=1;exitY=0.5;exitDx=0;exitDy=0;endFill=1;jumpSize=3;shadow=0;fillColor=#fff2cc;strokeColor=#d6b656;" edge="1" parent="1" source="V8BqJ2yRHNK_wXO8XiH2-46">
          <mxGeometry width="50" height="50" relative="1" as="geometry">
            <mxPoint x="1073" y="140" as="sourcePoint" />
            <mxPoint x="1113" y="90" as="targetPoint" />
          </mxGeometry>
        </mxCell>
        <mxCell id="V8BqJ2yRHNK_wXO8XiH2-76" value="" style="endArrow=blockThin;html=1;exitX=0.766;exitY=0.987;exitDx=0;exitDy=0;exitPerimeter=0;endFill=1;jumpSize=3;shadow=0;fillColor=#fff2cc;strokeColor=#d6b656;" edge="1" parent="1" source="V8BqJ2yRHNK_wXO8XiH2-46">
          <mxGeometry width="50" height="50" relative="1" as="geometry">
            <mxPoint x="1053" y="160" as="sourcePoint" />
            <mxPoint x="1083" y="110" as="targetPoint" />
          </mxGeometry>
        </mxCell>
        <mxCell id="V8BqJ2yRHNK_wXO8XiH2-77" value="" style="endArrow=blockThin;html=1;exitX=0;exitY=0.5;exitDx=0;exitDy=0;endFill=1;jumpSize=3;shadow=0;fillColor=#ffe6cc;strokeColor=#d79b00;" edge="1" parent="1" source="V8BqJ2yRHNK_wXO8XiH2-48">
          <mxGeometry width="50" height="50" relative="1" as="geometry">
            <mxPoint x="1113" y="230" as="sourcePoint" />
            <mxPoint x="1103" y="255" as="targetPoint" />
          </mxGeometry>
        </mxCell>
        <mxCell id="V8BqJ2yRHNK_wXO8XiH2-78" value="" style="endArrow=blockThin;html=1;exitX=0;exitY=0;exitDx=0;exitDy=0;endFill=1;jumpSize=3;shadow=0;fillColor=#ffe6cc;strokeColor=#d79b00;" edge="1" parent="1" source="V8BqJ2yRHNK_wXO8XiH2-48">
          <mxGeometry width="50" height="50" relative="1" as="geometry">
            <mxPoint x="1103" y="240" as="sourcePoint" />
            <mxPoint x="1103" y="230" as="targetPoint" />
          </mxGeometry>
        </mxCell>
        <mxCell id="V8BqJ2yRHNK_wXO8XiH2-79" value="" style="endArrow=blockThin;html=1;exitX=0.238;exitY=-0.068;exitDx=0;exitDy=0;exitPerimeter=0;endFill=1;jumpSize=3;shadow=0;fillColor=#ffe6cc;strokeColor=#d79b00;" edge="1" parent="1">
          <mxGeometry width="50" height="50" relative="1" as="geometry">
            <mxPoint x="1151.14" y="238.95999999999992" as="sourcePoint" />
            <mxPoint x="1134" y="201" as="targetPoint" />
          </mxGeometry>
        </mxCell>
        <mxCell id="V8BqJ2yRHNK_wXO8XiH2-80" value="" style="endArrow=blockThin;html=1;endFill=1;jumpSize=3;shadow=0;fillColor=#ffe6cc;strokeColor=#d79b00;" edge="1" parent="1">
          <mxGeometry width="50" height="50" relative="1" as="geometry">
            <mxPoint x="1167" y="239" as="sourcePoint" />
            <mxPoint x="1181" y="199" as="targetPoint" />
          </mxGeometry>
        </mxCell>
        <mxCell id="V8BqJ2yRHNK_wXO8XiH2-81" value="" style="endArrow=blockThin;html=1;exitX=0;exitY=0;exitDx=0;exitDy=0;endFill=1;jumpSize=3;shadow=0;fillColor=#d5e8d4;strokeColor=#82b366;" edge="1" parent="1" source="V8BqJ2yRHNK_wXO8XiH2-47">
          <mxGeometry width="50" height="50" relative="1" as="geometry">
            <mxPoint x="1113" y="170" as="sourcePoint" />
            <mxPoint x="1153" y="110" as="targetPoint" />
          </mxGeometry>
        </mxCell>
        <mxCell id="V8BqJ2yRHNK_wXO8XiH2-82" value="" style="endArrow=blockThin;html=1;exitX=0;exitY=0.5;exitDx=0;exitDy=0;endFill=1;jumpSize=3;shadow=0;fillColor=#d5e8d4;strokeColor=#82b366;" edge="1" parent="1" source="V8BqJ2yRHNK_wXO8XiH2-47">
          <mxGeometry width="50" height="50" relative="1" as="geometry">
            <mxPoint x="1063" y="180" as="sourcePoint" />
            <mxPoint x="1133" y="140" as="targetPoint" />
          </mxGeometry>
        </mxCell>
        <mxCell id="V8BqJ2yRHNK_wXO8XiH2-83" value="" style="endArrow=blockThin;html=1;exitX=0;exitY=1;exitDx=0;exitDy=0;endFill=1;jumpSize=3;shadow=0;fillColor=#d5e8d4;strokeColor=#82b366;" edge="1" parent="1" source="V8BqJ2yRHNK_wXO8XiH2-47">
          <mxGeometry width="50" height="50" relative="1" as="geometry">
            <mxPoint x="1053" y="180" as="sourcePoint" />
            <mxPoint x="1153" y="160" as="targetPoint" />
          </mxGeometry>
        </mxCell>
        <mxCell id="V8BqJ2yRHNK_wXO8XiH2-84" value="" style="endArrow=blockThin;html=1;exitX=0.5;exitY=1;exitDx=0;exitDy=0;endFill=1;jumpSize=3;shadow=0;fillColor=#d5e8d4;strokeColor=#82b366;" edge="1" parent="1" source="V8BqJ2yRHNK_wXO8XiH2-47">
          <mxGeometry width="50" height="50" relative="1" as="geometry">
            <mxPoint x="1213" y="200" as="sourcePoint" />
            <mxPoint x="1193" y="180" as="targetPoint" />
          </mxGeometry>
        </mxCell>
        <mxCell id="V8BqJ2yRHNK_wXO8XiH2-85" value="reply /file/xyg.jpg" style="text;html=1;align=center;verticalAlign=middle;whiteSpace=wrap;rounded=0;fontStyle=0;glass=0;strokeColor=#000000;fillColor=#ffffff;" vertex="1" parent="1">
          <mxGeometry x="918" y="276" width="100" height="20" as="geometry" />
        </mxCell>
        <mxCell id="V8BqJ2yRHNK_wXO8XiH2-87" value="reply /file/xyg.jpg" style="text;html=1;align=center;verticalAlign=middle;whiteSpace=wrap;rounded=0;fontStyle=0;glass=0;strokeColor=#000000;fillColor=#ffffff;" vertex="1" parent="1">
          <mxGeometry x="1113" y="276" width="100" height="20" as="geometry" />
        </mxCell>
        <mxCell id="V8BqJ2yRHNK_wXO8XiH2-88" value="reply /file/xyg.jpg" style="text;html=1;align=center;verticalAlign=middle;whiteSpace=wrap;rounded=0;fontStyle=0;glass=0;strokeColor=#000000;fillColor=#ffffff;" vertex="1" parent="1">
          <mxGeometry x="1193" y="94" width="100" height="20" as="geometry" />
        </mxCell>
        <mxCell id="V8BqJ2yRHNK_wXO8XiH2-89" value="reply /file/xyg.jpg" style="text;html=1;align=center;verticalAlign=middle;whiteSpace=wrap;rounded=0;fontStyle=0;glass=0;strokeColor=#000000;fillColor=#ffffff;" vertex="1" parent="1">
          <mxGeometry x="795" y="105" width="100" height="20" as="geometry" />
        </mxCell>
        <mxCell id="V8BqJ2yRHNK_wXO8XiH2-91" value="(a)" style="text;html=1;strokeColor=none;fillColor=none;align=center;verticalAlign=middle;whiteSpace=wrap;rounded=0;glass=0;" vertex="1" parent="1">
          <mxGeometry x="300" y="290" width="40" height="20" as="geometry" />
        </mxCell>
        <mxCell id="V8BqJ2yRHNK_wXO8XiH2-92" value="(b)" style="text;html=1;strokeColor=none;fillColor=none;align=center;verticalAlign=middle;whiteSpace=wrap;rounded=0;glass=0;" vertex="1" parent="1">
          <mxGeometry x="605" y="290" width="40" height="20" as="geometry" />
        </mxCell>
        <mxCell id="V8BqJ2yRHNK_wXO8XiH2-93" value="(c)" style="text;html=1;strokeColor=none;fillColor=none;align=center;verticalAlign=middle;whiteSpace=wrap;rounded=0;glass=0;" vertex="1" parent="1">
          <mxGeometry x="1038" y="296" width="40" height="20" as="geometry" />
        </mxCell>
      </root>
    </mxGraphModel>
  </diagram>
</mxfile>
